<?xml version="1.0" standalone="no"?><!DOCTYPE svg PUBLIC "-//W3C//DTD SVG 1.1//EN" "http://www.w3.org/Graphics/SVG/1.1/DTD/svg11.dtd"><svg t="1553527907661" class="icon" style="" viewBox="0 0 2557 1024" version="1.1" xmlns="http://www.w3.org/2000/svg" p-id="1723" xmlns:xlink="http://www.w3.org/1999/xlink" width="79.90625" height="32"><defs><style type="text/css"></style></defs><path d="M69.573206 572.264115c0-263.594258 222.438278-478.193301 495.341627-478.193302 169.523445 0 326.308134 84.761722 417.439234 221.948326C915.230622 128.857416 729.538756 0 520.329187 0 250.855502 0 31.84689 210.189474 31.84689 468.394258c0 70.55311 17.638278 140.126316 49.485167 203.330144-7.349282-32.826794-11.758852-65.653589-11.758851-99.460287z" fill="#ffffff" p-id="1724"></path><path d="M1065.645933 362.564593h-89.171292c-9.799043 0-8.329187 8.819139-8.329186 8.819139 1.959809 11.2689 3.919617 30.866986 3.919617 70.063158 0 87.211483-10.288995 212.639234-106.319617 331.697608l-6.859331 8.329186s-57.324402-401.760766-58.794258-409.6c0 0-0.489952-9.309091-8.329187-9.309091h-89.661244c-8.329187 0-7.839234 8.819139-7.839234 8.819139-1.959809 46.545455-27.927273 433.607656-310.139713 495.831579 60.264115 6.85933 132.777033-12.248804 196.470813-51.444976 77.902392-48.505263 130.817225-120.52823 148.455503-202.350239 0 0 34.296651 215.578947 39.196172 265.064115l0.489952 2.939712-2.939713 1.469857c-79.372249 42.135885-169.033493 64.673684-259.184689 64.673684-221.948325 0-419.888995-132.287081-506.120574-333.167464C50.955024 851.04689 261.63445 1024 508.570335 1024c288.091866 0 459.085167-241.056459 488.482297-412.049761 0 0 38.70622 249.385646 39.686124 257.714833h117.588517c-1.959809-10.778947-79.862201-490.442105-80.842106-498.28134 0 0-0.489952-8.819139-7.839234-8.819139zM1220.960766 502.200957v367.464115h86.721531v-367.464115zM2409.584689 499.261244c-103.869856 0-140.616268 63.203828-152.37512 93.580861-0.489952 0.979904-3.919617 10.778947-3.919617 10.778948l34.786603 11.758851s22.537799-64.183732 110.729187-60.264115c89.171292 3.429665 78.882297 76.432536 77.902392 88.191388-48.995215-14.698565-119.548325-13.228708-165.113876 7.349282-57.324402 26.457416-66.143541 79.372249-64.673684 118.078469 2.449761 57.324402 53.404785 97.500478 119.058373 101.420096 59.284211 3.429665 85.741627-9.799043 110.239235-34.296651l-0.489952 33.316747h77.902392V617.339713c1.469856-43.605742-29.397129-118.078469-144.045933-118.078469z m65.653589 285.152153c0 5.879426-1.959809 9.799043-6.369378 12.248804-15.188517 7.349282-46.545455 17.148325-85.251675 14.698565-40.666029-2.939713-55.854545-31.84689-58.304306-44.095694-0.979904-4.409569-9.799043-58.304306 42.135885-75.452632 33.806699-11.2689 76.922488-3.919617 99.460287 2.449761 6.85933 1.959809 8.329187 5.879426 8.329187 13.71866v76.432536zM2134.721531 555.605742c-31.356938-36.256459-74.472727-54.874641-127.877512-54.874642-53.894737 0-98.970335 17.638278-135.226794 51.934929-35.276555 33.806699-53.404785 79.372249-53.404785 135.226794 0 55.364593 17.638278 99.950239 52.424881 132.777033 34.786603 32.826794 84.761722 49.485167 147.475598 49.485168 121.508134 0 147.96555-83.781818 157.764593-111.709091l-31.356938-10.288995c-27.927273 50.955024-90.641148 54.384689-127.38756 51.934928-26.457416-1.469856-49.97512-10.778947-68.593301-24.497608-19.108134-13.71866-31.84689-33.806699-37.726316-64.183732l-1.469856-11.268899h273.393301c-1.469856-60.754067-17.148325-109.749282-48.015311-144.535885z m-41.645933 93.090909l-178.832536 0.489952c-3.919617 0-4.409569-3.919617-4.409569-6.369378 3.429665-21.067943 11.758852-37.726316 26.457416-52.914833 16.168421-17.148325 42.135885-26.947368 69.573206-26.947368 24.497608 0 44.585646 7.349282 61.733971 21.557895 14.208612 12.248804 24.007656 29.397129 29.887081 53.894737 0.489952 2.939713 1.959809 10.288995-4.409569 10.288995zM1301.312919 363.054545H1229.779904c-10.288995 0-8.819139 10.288995-8.819138 10.288996v76.922488h88.681339v-78.392345s0.979904-8.819139-8.329186-8.819139zM1741.289952 363.054545h-73.492823c-7.349282 0-7.349282 8.329187-7.349282 8.329187v150.415311l-10.288995-5.389474c-11.2689-5.879426-23.027751-10.288995-35.276555-12.248803-12.248804-2.449761-27.437321-3.429665-43.605742-3.429666-57.324402 0-104.359809 16.658373-139.146411 49.97512-34.296651 32.826794-51.934928 80.842105-51.934929 139.146412 0.489952 52.42488 14.698565 96.030622 43.605742 130.327272 28.417225 33.806699 71.043062 50.955024 126.407655 50.955024 79.372249 0 110.729187-48.015311 110.729187-48.015311v46.545455h88.191388v-86.721531-411.069857s0.489952-8.819139-7.839235-8.819139z m-85.741627 406.660288c-8.329187 6.85933-19.108134 13.228708-32.336842 18.618181-14.208612 5.879426-30.377033 8.819139-48.995215 8.819139-29.397129 0-53.404785-9.799043-70.55311-29.397129s-25.477512-48.995215-25.477512-87.211483c0-37.726316 8.329187-65.653589 24.007655-83.291866 16.658373-18.12823 41.645933-27.437321 74.472728-27.437321 17.638278 0 33.806699 2.939713 48.505263 8.329187 13.228708 4.409569 23.027751 10.288995 30.377033 16.658373 2.449761 2.449761 4.899522 6.369378 4.899522 12.248804v150.415311c0 5.879426-2.449761 9.799043-4.899522 12.248804z" fill="#ffffff" p-id="1725"></path></svg>